<svg xmlns="http://www.w3.org/2000/svg" fill="none" viewBox="0 0 97 16"><g clip-path="url(#a)"><path fill="#3DA9A9" d="M14.86 1.48H.57V15.2h14.29V1.48Z"/><path fill="#fff" d="M7.22 6.16s-.17-.92-.38-1.36c-.31-.63-.95-1.27-2.21-1.27S1.86 4.62 1.14 5.34L0 4.2c.84-.85 2.76-2.28 4.62-2.28 1.6 0 2.68.7 3.29 1.46 1.11-.82 2.78-1.67 4.35-1.46 2.6.35 3.17 2.6 3.17 3.44H13.8c0-.01-.02-1.59-1.76-1.82-1.32-.18-3 .91-3.83 1.69l-1 .94ZM7.22 15.62s-.17-.93-.38-1.36c-.31-.63-.95-1.27-2.21-1.27s-2.77 1.09-3.49 1.81L0 13.64c.84-.85 2.76-2.28 4.62-2.28 1.6 0 2.68.7 3.29 1.46 1.11-.82 2.78-1.67 4.35-1.46 2.6.35 3.17 2.61 3.17 3.45H13.8c0-.02-.02-1.6-1.76-1.83-1.32-.18-3 .91-3.83 1.69l-1 .95ZM7.22 10.89s-.17-.93-.38-1.37c-.31-.62-.95-1.26-2.21-1.26s-2.77 1.09-3.49 1.81L0 8.92c.84-.85 2.76-2.29 4.62-2.29 1.6 0 2.68.7 3.29 1.47 1.11-.82 2.78-1.67 4.35-1.46 2.6.35 3.17 2.6 3.17 3.44H13.8c0-.02-.02-1.6-1.76-1.83-1.32-.18-3 .92-3.83 1.7l-1 .94Z"/><path fill="#33342F" d="m32.7 11.23.8.92h-4.43l.8-.92V6.87c0-.43-.06-.73-.2-.9-.15-.19-.38-.28-.7-.28-.4 0-.83.16-1.27.48v5.06l.8.92h-4.43l.81-.92V6.87c0-.43-.07-.73-.21-.9-.15-.19-.38-.28-.69-.28-.41 0-.84.16-1.27.48v5.06l.8.92h-4.43l.8-.92v-4.7l-.74-.87 3.57-1.58-.23 1.47.08.08a4.12 4.12 0 0 1 3.02-1.46c1.09 0 1.76.47 2.02 1.42a4.1 4.1 0 0 1 2.98-1.42c1.41 0 2.12.78 2.12 2.34v4.72ZM39.37 10.27c.9.01 1.8-.28 2.5-.85l.08.08c-.54 1.87-1.74 2.8-3.6 2.8-1.26 0-2.26-.39-3.01-1.18a4.1 4.1 0 0 1-1.12-2.96c0-1.22.4-2.2 1.2-2.91a4.44 4.44 0 0 1 3.08-1.08c1.1 0 1.95.29 2.57.85.62.56.93 1.38.94 2.45h-5.15c.04.92.28 1.62.71 2.09.43.47 1.03.7 1.8.7Zm-1.14-5.4a1.08 1.08 0 0 0-.93.52 2.9 2.9 0 0 0-.42 1.46h2.4c0-1.32-.35-1.98-1.05-1.98ZM51.36 10.27l.96.87-2.94 1.29-.62-1.3h-.08a3.23 3.23 0 0 1-4.82.21c-.67-.64-1-1.56-1-2.76-.01-.55.08-1.1.26-1.62a3.79 3.79 0 0 1 1.8-2.11c.4-.23.82-.4 1.26-.51a5.65 5.65 0 0 1 2.35-.09v-1.8l-.74-.87L51.36 0v10.27Zm-3.95.65c.41.01.82-.14 1.12-.42V6a1.08 1.08 0 0 0-.32-.8 1.1 1.1 0 0 0-.8-.32c-.48 0-.88.27-1.2.82-.31.56-.47 1.31-.48 2.26 0 .98.16 1.71.47 2.21.3.5.7.75 1.2.75ZM56.47 11.23l.8.92h-4.43l.8-.92v-4.7l-.74-.87 3.57-1.58v7.15ZM56.07 3a1.5 1.5 0 0 1-2.49-.68 1.54 1.54 0 0 1 .75-1.76 1.5 1.5 0 0 1 1.86.38A1.53 1.53 0 0 1 56.07 3ZM66.48 10.56l.08.07c-.18.57-.45.99-.84 1.26-.39.28-.86.43-1.33.42-.85 0-1.44-.37-1.8-1.09h-.07a2.78 2.78 0 0 1-2.28 1.09c-.66 0-1.19-.18-1.58-.53a1.8 1.8 0 0 1-.6-1.42c0-.86.4-1.52 1.19-1.98h3.19v-.83c0-.58-.13-1-.39-1.23-.26-.23-.64-.35-1.16-.35a4.4 4.4 0 0 0-2.34.77l-.08-.08c.86-1.66 2.16-2.49 3.9-2.49.9 0 1.6.23 2.1.68.5.45.75 1.08.75 1.89v3.33c0 .5.2.76.58.76.25 0 .5-.1.68-.27Zm-5.06.46a1.43 1.43 0 0 0 1.02-.46V9h-1.52c-.26.27-.4.64-.4 1.03 0 .31.08.56.25.72a.9.9 0 0 0 .65.26ZM75.52 4.17a3.28 3.28 0 0 1 2.34.97c.68.64 1.01 1.57 1.02 2.76 0 .55-.1 1.1-.28 1.62a3.79 3.79 0 0 1-1.8 2.11c-.39.23-.81.4-1.26.52a6.34 6.34 0 0 1-4.02-.35l-1.15.5V2.46l-.74-.87L73.2 0v4.16l-.24 1.12.08.08a3.23 3.23 0 0 1 2.47-1.19Zm-1.2 7.43c.48 0 .88-.27 1.2-.83.31-.55.47-1.3.47-2.25 0-.97-.16-1.7-.46-2.21-.31-.5-.72-.75-1.21-.75-.42-.01-.82.15-1.13.43v4.5a1.08 1.08 0 0 0 .7 1.04c.13.05.28.08.43.07ZM88.28 10.56l.07.07c-.17.57-.45.99-.83 1.26-.4.28-.86.42-1.34.42-.84 0-1.44-.37-1.8-1.09h-.07a2.79 2.79 0 0 1-2.28 1.09c-.65 0-1.18-.18-1.58-.53a1.8 1.8 0 0 1-.59-1.42c0-.86.4-1.52 1.18-1.98h3.2v-.83c0-.58-.13-1-.4-1.23-.25-.23-.64-.35-1.15-.35a4.4 4.4 0 0 0-2.34.77l-.08-.08c.85-1.66 2.15-2.49 3.9-2.49.9 0 1.6.23 2.1.68.5.45.74 1.08.74 1.89v3.33c0 .5.2.76.58.76.25 0 .5-.1.69-.27Zm-5.06.46a1.43 1.43 0 0 0 1.02-.46V9h-1.52c-.27.27-.41.64-.41 1.03 0 .31.08.56.25.72a.9.9 0 0 0 .66.26ZM95.61 5.25l-3.23 7.36-.56 1.3 1.72 1.93h-3.65l1.93-4.07-3.65-6.58-.93-.86h5.03l-.8.92 1.78 3.28 1.39-3.28-.9-.92h2.86l-.99.92Z"/></g><defs><clipPath id="a"><path fill="#fff" d="M0 0h96.6v15.84H0z"/></clipPath></defs></svg>