<svg xmlns="http://www.w3.org/2000/svg" fill="none" viewBox="0 0 45 45"><path fill="currentColor" fill-rule="evenodd" d="M17.245.494c-3.083.749-7.247 2.946-9.68 5.11C2.2 10.374-.405 16.754.05 24.002c.368 5.85 2.446 10.32 6.778 14.584 9.251 9.107 24.472 8.425 32.737-1.465 7.673-9.183 7.17-22.019-1.193-30.432-3.154-3.173-5.894-4.792-10.07-5.949-3.186-.883-7.992-.99-11.058-.246Zm11.093 1.199c3.69 1.095 6.368 2.73 9.32 5.694 4.331 4.347 6.312 9.102 6.312 15.155 0 11.873-9.481 21.455-21.23 21.455-6.05 0-11.338-2.09-15.293-6.046-3.686-3.684-5.721-7.78-6.33-12.73-.854-6.97 1.338-13.2 6.44-18.303 5.266-5.266 13.592-7.36 20.781-5.225Zm-8.062 1.525C15.89 3.779 12.19 5.62 8.97 8.845c-4.033 4.037-5.672 7.949-5.672 13.538 0 7.565 3.995 14.093 10.607 17.335 7.599 3.726 16.57 2.253 22.337-3.668 1.722-1.768 3.986-5.221 3.993-6.092.002-.231-1.633-1.106-3.635-1.945-3.218-1.35-3.681-1.458-4.01-.93-2.687 4.291-5.815 6.241-10.05 6.265-2.054.011-3.042-.185-4.467-.886-7.556-3.719-8.772-13.014-2.414-18.456 3.961-3.391 10.104-3.224 14.118.385.98.88 1.991 2.11 2.248 2.73.258.621.68 1.13.937 1.13 1.204 0 7.276-2.855 7.276-3.42 0-.799-3.023-5.11-4.55-6.489-4.161-3.76-10.252-5.785-15.412-5.124Zm-.884 2.74c-.998 1.015-1.992 1.845-2.21 1.845-.398 0-1.402-2.531-1.117-2.816.28-.28 4.577-1.189 4.863-1.029.154.086-.537.987-1.536 2Zm8.067-1.442c.872.22 1.585.491 1.585.604 0 .597-.94 2.683-1.21 2.683-.518 0-4.016-3.425-3.82-3.742.186-.3.714-.231 3.445.455Zm-2.414 1.712c1.174 1.186 2.134 2.339 2.134 2.562 0 .375-3.869 1.998-4.763 1.998-.864 0-4.566-1.621-4.566-2 0-.524 4.146-4.716 4.665-4.716.218 0 1.356.97 2.53 2.156Zm-9.508.575c.246.682.448 1.354.448 1.493s-1.27.253-2.82.253c-1.887 0-2.74-.13-2.578-.394.316-.51 3.6-2.574 4.11-2.584.215-.003.593.55.84 1.232Zm16.674-.29c2.952 1.73 2.904 2.036-.323 2.036-1.564 0-2.844-.114-2.844-.253 0-.648.932-2.732 1.222-2.732.178 0 1.054.427 1.945.95ZM15.985 9.819c0 .287-.41 1.408-.911 2.489-.814 1.756-1.134 2.06-3.001 2.848-1.15.485-2.251.782-2.448.66-.4-.247-.497-5.882-.108-6.27.137-.138 1.648-.25 3.358-.25 2.418 0 3.11.117 3.11.523Zm19.458.317c.074 1.13-.11 5.662-.235 5.8-.055.059-1.057-.277-2.227-.747-1.786-.718-2.237-1.096-2.818-2.36-.38-.829-.805-1.962-.945-2.52l-.255-1.013h3.213c3.065 0 3.214.039 3.267.84Zm-16.555.122 1.388.588-2.052.849c-1.13.466-2.11.803-2.178.747-.156-.124 1.085-2.772 1.3-2.772.085 0 .78.265 1.542.588Zm9.544.764c.354.743.583 1.414.506 1.49-.075.075-.796-.175-1.601-.556-.805-.382-1.716-.782-2.024-.888-.38-.132-.143-.382.746-.782 1.731-.778 1.636-.808 2.373.736Zm-20.067 4.9c-.24.239-2.398-.635-2.676-1.084-.209-.338.988-2.558 2.055-3.81.55-.648.599-.51.702 2.003.06 1.484.024 2.785-.081 2.89ZM37.919 12c1.668 2.46 1.708 2.802.416 3.47-.623.323-1.31.527-1.527.455-.328-.11-.45-1.954-.324-4.951.036-.86.271-.692 1.435 1.026ZM6.797 16.203c.744.311 1.352.694 1.352.852 0 .157-1.024 1.288-2.275 2.513l-2.275 2.227.253-1.679c.386-2.565.933-4.477 1.28-4.477.173 0 .922.254 1.665.564ZM13 15.84c0 .111-.312.824-.694 1.586-.381.761-.822 1.888-.98 2.504l-.287 1.12-.689-1.493c-.997-2.16-.897-2.641.69-3.3 1.528-.633 1.96-.725 1.96-.417Zm20.694.674c.495.363.562.58.241.779-.462.286-1.532-.38-1.532-.954 0-.471.5-.403 1.29.175Zm-23.717 3.87.763 1.945-.81 2.252c-.446 1.238-.981 2.252-1.19 2.252-.496 0-4.322-3.779-4.322-4.268 0-.596 4.23-4.71 4.529-4.404.147.152.61 1.152 1.03 2.222Zm-3.704 5.505 2.017 2.043-1.365.57c-1.916.8-1.997.765-2.463-1.088-.385-1.527-.563-3.566-.312-3.566.059 0 1.014.919 2.123 2.041Zm6.206 3.081c-.127.127-2.332-.84-2.766-1.212-.063-.054.162-.746.5-1.538l.615-1.44.903 2.017c.498 1.11.834 2.087.748 2.173Zm21.79-1.031c0 .405-1.467 1.283-1.72 1.03-.09-.09-.058-.44.071-.777.25-.65 1.648-.865 1.648-.253ZM8.521 31.754c0 2.952-.022 3.03-.665 2.332-.867-.944-2.32-3.32-2.32-3.795 0-.298.898-.782 2.892-1.556.051-.02.093 1.338.093 3.019Zm6.415.73c1.318 2.62 1.3 2.928-.165 2.946-.667.008-2.085.068-3.152.133-1.183.074-1.998-.041-2.092-.294-.13-.353-.076-5.549.065-6.25.027-.13 1.014.146 2.194.615 1.927.765 2.248 1.055 3.15 2.85Zm24.555-2.318c0 .497-2.686 4.5-2.922 4.356-.137-.085-.195-1.41-.128-2.947l.121-2.795 1.465.576c.805.316 1.464.68 1.464.81Zm-3.878-.504c-.124.324-.226 1.794-.226 3.267v2.676l-3.079-.13c-1.693-.072-3.142-.193-3.22-.269-.078-.076.244-1.09.716-2.252.77-1.898 1.053-2.204 2.754-2.977 2.293-1.043 3.378-1.155 3.055-.315Zm-18.089 3.272a77.27 77.27 0 0 0 2.005.774c.711.256.703.292-.187.788-1.294.72-2.488.673-2.713-.108-.103-.359-.308-.946-.456-1.305-.324-.785-.255-.793 1.351-.149Zm11.52-.3c0 .114-.257.701-.57 1.307-.623 1.204-1.359 1.35-2.789.556l-.933-.519 1.12-.407a31.242 31.242 0 0 0 1.865-.749c.889-.407 1.306-.467 1.306-.187Zm-4.155 2.457c1.054.438 1.916.978 1.916 1.201 0 .526-3.77 4.346-4.29 4.346-.219 0-1.39-1.002-2.603-2.228l-2.205-2.228 2.03-.922c2.518-1.143 2.786-1.152 5.152-.169Zm9.657 1.597c.075.075-.834.742-2.018 1.483-2.343 1.466-2.826 1.38-3.307-.583-.218-.888-.128-1.012.815-1.127 1.172-.143 4.297.014 4.51.227Zm-18.562.238c0 .215-.257.888-.57 1.494l-.571 1.103-1.389-.735c-.763-.405-1.808-1.074-2.321-1.487l-.933-.75 2.892-.009c1.776-.005 2.892.143 2.892.384Zm4.606 4.034c-1.127.234-4.606-.773-4.606-1.332 0-.286.267-1.036.593-1.667l.594-1.148 2.035 2.006c1.584 1.562 1.89 2.036 1.384 2.141Zm7.911-2.9c.805 1.556.535 2.025-1.457 2.526-3.424.862-3.604.647-1.359-1.627 1.115-1.128 2.07-2.052 2.123-2.052.053 0 .365.52.693 1.153Z" clip-rule="evenodd"/></svg>