<svg xmlns="http://www.w3.org/2000/svg" fill="none" viewBox="0 0 20 20"><g clip-path="url(#a)"><path fill="currentColor" d="m19.567 16.035-5.756-4.923 6.002-7.247a.814.814 0 0 0-1.254-1.038l-6.513 7.864a.8.8 0 0 0-.085.125v-7.47a.814.814 0 0 0-.814-.814h-1.033a.814.814 0 1 0 0 1.628h.22v10.119L1.457 2.847a.814.814 0 0 0-1.286.998l10.334 13.308a.813.813 0 0 0 1.456-.499v-5.051c.046.083.107.16.183.226l6.365 5.444a.81.81 0 0 0 1.148-.09.814.814 0 0 0-.09-1.148Z"/></g><defs><clipPath id="a"><path fill="#fff" d="M0 0h20v20H0z"/></clipPath></defs></svg>