<svg xmlns="http://www.w3.org/2000/svg" fill="none" viewBox="0 0 20 20"><g clip-path="url(#a)"><path fill="currentColor" d="m.346 9.33 4.89 2.438c.19.093.413.086.594-.02l4.353-2.53-2.635 2.335a.626.626 0 0 0-.21.468v5.687c0 .6.765.853 1.124.376l2.115-2.81 5.228 2.977c.367.21.837-.001.922-.42l3.26-16.25a.625.625 0 0 0-.84-.705L.398 8.188A.626.626 0 0 0 .346 9.33Zm18.192-6.874-2.866 14.28-4.955-2.821a.626.626 0 0 0-.809.168l-1.32 1.755v-3.536l7.125-6.314c.565-.499-.084-1.386-.728-1.008l-9.492 5.518-3.326-1.657 16.37-6.385Z"/></g><defs><clipPath id="a"><path fill="#fff" d="M0 0h20v20H0z"/></clipPath></defs></svg>