<svg xmlns="http://www.w3.org/2000/svg" fill="none" viewBox="0 0 20 20"><path fill="currentColor" d="M17.222 0H2.778A2.781 2.781 0 0 0 0 2.778v14.444A2.781 2.781 0 0 0 2.778 20h14.444A2.781 2.781 0 0 0 20 17.222V2.778A2.781 2.781 0 0 0 17.222 0Zm1.667 17.222c0 .92-.746 1.667-1.667 1.667H2.778c-.92 0-1.667-.746-1.667-1.667V2.778c0-.92.746-1.667 1.667-1.667h14.444c.92 0 1.667.746 1.667 1.667v14.444Z"/><path fill="currentColor" d="M10 4.444a5.555 5.555 0 1 0 0 11.111 5.555 5.555 0 0 0 0-11.11Zm0 10a4.444 4.444 0 1 1 0-8.888 4.444 4.444 0 0 1 0 8.888ZM16.111 2.222a1.667 1.667 0 1 0 0 3.334 1.667 1.667 0 0 0 0-3.334Zm0 2.222a.556.556 0 1 1 0-1.11.556.556 0 0 1 0 1.11Z"/></svg>