<svg style="display: none;" aria-hidden="true" xmlns="http://www.w3.org/2000/svg" xmlns:xlink="http://www.w3.org/1999/xlink"><symbol fill="none" viewBox="0 0 45 45" id="svg-logo" xmlns="http://www.w3.org/2000/svg"><path fill="currentColor" fill-rule="evenodd" d="M17.245.494c-3.083.749-7.247 2.946-9.68 5.11C2.2 10.374-.405 16.754.05 24.002c.368 5.85 2.446 10.32 6.778 14.584 9.251 9.107 24.472 8.425 32.737-1.465 7.673-9.183 7.17-22.019-1.193-30.432-3.154-3.173-5.894-4.792-10.07-5.949-3.186-.883-7.992-.99-11.058-.246Zm11.093 1.199c3.69 1.095 6.368 2.73 9.32 5.694 4.331 4.347 6.312 9.102 6.312 15.155 0 11.873-9.481 21.455-21.23 21.455-6.05 0-11.338-2.09-15.293-6.046-3.686-3.684-5.721-7.78-6.33-12.73-.854-6.97 1.338-13.2 6.44-18.303 5.266-5.266 13.592-7.36 20.781-5.225Zm-8.062 1.525C15.89 3.779 12.19 5.62 8.97 8.845c-4.033 4.037-5.672 7.949-5.672 13.538 0 7.565 3.995 14.093 10.607 17.335 7.599 3.726 16.57 2.253 22.337-3.668 1.722-1.768 3.986-5.221 3.993-6.092.002-.231-1.633-1.106-3.635-1.945-3.218-1.35-3.681-1.458-4.01-.93-2.687 4.291-5.815 6.241-10.05 6.265-2.054.011-3.042-.185-4.467-.886-7.556-3.719-8.772-13.014-2.414-18.456 3.961-3.391 10.104-3.224 14.118.385.98.88 1.991 2.11 2.248 2.73.258.621.68 1.13.937 1.13 1.204 0 7.276-2.855 7.276-3.42 0-.799-3.023-5.11-4.55-6.489-4.161-3.76-10.252-5.785-15.412-5.124Zm-.884 2.74c-.998 1.015-1.992 1.845-2.21 1.845-.398 0-1.402-2.531-1.117-2.816.28-.28 4.577-1.189 4.863-1.029.154.086-.537.987-1.536 2Zm8.067-1.442c.872.22 1.585.491 1.585.604 0 .597-.94 2.683-1.21 2.683-.518 0-4.016-3.425-3.82-3.742.186-.3.714-.231 3.445.455Zm-2.414 1.712c1.174 1.186 2.134 2.339 2.134 2.562 0 .375-3.869 1.998-4.763 1.998-.864 0-4.566-1.621-4.566-2 0-.524 4.146-4.716 4.665-4.716.218 0 1.356.97 2.53 2.156Zm-9.508.575c.246.682.448 1.354.448 1.493s-1.27.253-2.82.253c-1.887 0-2.74-.13-2.578-.394.316-.51 3.6-2.574 4.11-2.584.215-.003.593.55.84 1.232Zm16.674-.29c2.952 1.73 2.904 2.036-.323 2.036-1.564 0-2.844-.114-2.844-.253 0-.648.932-2.732 1.222-2.732.178 0 1.054.427 1.945.95ZM15.985 9.819c0 .287-.41 1.408-.911 2.489-.814 1.756-1.134 2.06-3.001 2.848-1.15.485-2.251.782-2.448.66-.4-.247-.497-5.882-.108-6.27.137-.138 1.648-.25 3.358-.25 2.418 0 3.11.117 3.11.523Zm19.458.317c.074 1.13-.11 5.662-.235 5.8-.055.059-1.057-.277-2.227-.747-1.786-.718-2.237-1.096-2.818-2.36-.38-.829-.805-1.962-.945-2.52l-.255-1.013h3.213c3.065 0 3.214.039 3.267.84Zm-16.555.122 1.388.588-2.052.849c-1.13.466-2.11.803-2.178.747-.156-.124 1.085-2.772 1.3-2.772.085 0 .78.265 1.542.588Zm9.544.764c.354.743.583 1.414.506 1.49-.075.075-.796-.175-1.601-.556-.805-.382-1.716-.782-2.024-.888-.38-.132-.143-.382.746-.782 1.731-.778 1.636-.808 2.373.736Zm-20.067 4.9c-.24.239-2.398-.635-2.676-1.084-.209-.338.988-2.558 2.055-3.81.55-.648.599-.51.702 2.003.06 1.484.024 2.785-.081 2.89ZM37.919 12c1.668 2.46 1.708 2.802.416 3.47-.623.323-1.31.527-1.527.455-.328-.11-.45-1.954-.324-4.951.036-.86.271-.692 1.435 1.026ZM6.797 16.203c.744.311 1.352.694 1.352.852 0 .157-1.024 1.288-2.275 2.513l-2.275 2.227.253-1.679c.386-2.565.933-4.477 1.28-4.477.173 0 .922.254 1.665.564ZM13 15.84c0 .111-.312.824-.694 1.586-.381.761-.822 1.888-.98 2.504l-.287 1.12-.689-1.493c-.997-2.16-.897-2.641.69-3.3 1.528-.633 1.96-.725 1.96-.417Zm20.694.674c.495.363.562.58.241.779-.462.286-1.532-.38-1.532-.954 0-.471.5-.403 1.29.175Zm-23.717 3.87.763 1.945-.81 2.252c-.446 1.238-.981 2.252-1.19 2.252-.496 0-4.322-3.779-4.322-4.268 0-.596 4.23-4.71 4.529-4.404.147.152.61 1.152 1.03 2.222Zm-3.704 5.505 2.017 2.043-1.365.57c-1.916.8-1.997.765-2.463-1.088-.385-1.527-.563-3.566-.312-3.566.059 0 1.014.919 2.123 2.041Zm6.206 3.081c-.127.127-2.332-.84-2.766-1.212-.063-.054.162-.746.5-1.538l.615-1.44.903 2.017c.498 1.11.834 2.087.748 2.173Zm21.79-1.031c0 .405-1.467 1.283-1.72 1.03-.09-.09-.058-.44.071-.777.25-.65 1.648-.865 1.648-.253ZM8.521 31.754c0 2.952-.022 3.03-.665 2.332-.867-.944-2.32-3.32-2.32-3.795 0-.298.898-.782 2.892-1.556.051-.02.093 1.338.093 3.019Zm6.415.73c1.318 2.62 1.3 2.928-.165 2.946-.667.008-2.085.068-3.152.133-1.183.074-1.998-.041-2.092-.294-.13-.353-.076-5.549.065-6.25.027-.13 1.014.146 2.194.615 1.927.765 2.248 1.055 3.15 2.85Zm24.555-2.318c0 .497-2.686 4.5-2.922 4.356-.137-.085-.195-1.41-.128-2.947l.121-2.795 1.465.576c.805.316 1.464.68 1.464.81Zm-3.878-.504c-.124.324-.226 1.794-.226 3.267v2.676l-3.079-.13c-1.693-.072-3.142-.193-3.22-.269-.078-.076.244-1.09.716-2.252.77-1.898 1.053-2.204 2.754-2.977 2.293-1.043 3.378-1.155 3.055-.315Zm-18.089 3.272a77.27 77.27 0 0 0 2.005.774c.711.256.703.292-.187.788-1.294.72-2.488.673-2.713-.108-.103-.359-.308-.946-.456-1.305-.324-.785-.255-.793 1.351-.149Zm11.52-.3c0 .114-.257.701-.57 1.307-.623 1.204-1.359 1.35-2.789.556l-.933-.519 1.12-.407a31.242 31.242 0 0 0 1.865-.749c.889-.407 1.306-.467 1.306-.187Zm-4.155 2.457c1.054.438 1.916.978 1.916 1.201 0 .526-3.77 4.346-4.29 4.346-.219 0-1.39-1.002-2.603-2.228l-2.205-2.228 2.03-.922c2.518-1.143 2.786-1.152 5.152-.169Zm9.657 1.597c.075.075-.834.742-2.018 1.483-2.343 1.466-2.826 1.38-3.307-.583-.218-.888-.128-1.012.815-1.127 1.172-.143 4.297.014 4.51.227Zm-18.562.238c0 .215-.257.888-.57 1.494l-.571 1.103-1.389-.735c-.763-.405-1.808-1.074-2.321-1.487l-.933-.75 2.892-.009c1.776-.005 2.892.143 2.892.384Zm4.606 4.034c-1.127.234-4.606-.773-4.606-1.332 0-.286.267-1.036.593-1.667l.594-1.148 2.035 2.006c1.584 1.562 1.89 2.036 1.384 2.141Zm7.911-2.9c.805 1.556.535 2.025-1.457 2.526-3.424.862-3.604.647-1.359-1.627 1.115-1.128 2.07-2.052 2.123-2.052.053 0 .365.52.693 1.153Z" clip-rule="evenodd"/></symbol><symbol fill="none" viewBox="0 0 20 20" id="svg-social-insta" xmlns="http://www.w3.org/2000/svg"><path fill="currentColor" d="M17.222 0H2.778A2.781 2.781 0 0 0 0 2.778v14.444A2.781 2.781 0 0 0 2.778 20h14.444A2.781 2.781 0 0 0 20 17.222V2.778A2.781 2.781 0 0 0 17.222 0Zm1.667 17.222c0 .92-.746 1.667-1.667 1.667H2.778c-.92 0-1.667-.746-1.667-1.667V2.778c0-.92.746-1.667 1.667-1.667h14.444c.92 0 1.667.746 1.667 1.667v14.444Z"/><path fill="currentColor" d="M10 4.444a5.555 5.555 0 1 0 0 11.111 5.555 5.555 0 0 0 0-11.11Zm0 10a4.444 4.444 0 1 1 0-8.888 4.444 4.444 0 0 1 0 8.888ZM16.111 2.222a1.667 1.667 0 1 0 0 3.334 1.667 1.667 0 0 0 0-3.334Zm0 2.222a.556.556 0 1 1 0-1.11.556.556 0 0 1 0 1.11Z"/></symbol><symbol fill="none" viewBox="0 0 20 20" id="svg-social-telegram" xmlns="http://www.w3.org/2000/svg"><g clip-path="url(#ca)"><path fill="currentColor" d="m.346 9.33 4.89 2.438c.19.093.413.086.594-.02l4.353-2.53-2.635 2.335a.626.626 0 0 0-.21.468v5.687c0 .6.765.853 1.124.376l2.115-2.81 5.228 2.977c.367.21.837-.001.922-.42l3.26-16.25a.625.625 0 0 0-.84-.705L.398 8.188A.626.626 0 0 0 .346 9.33Zm18.192-6.874-2.866 14.28-4.955-2.821a.626.626 0 0 0-.809.168l-1.32 1.755v-3.536l7.125-6.314c.565-.499-.084-1.386-.728-1.008l-9.492 5.518-3.326-1.657 16.37-6.385Z"/></g><defs><clipPath id="ca"><path fill="#fff" d="M0 0h20v20H0z"/></clipPath></defs></symbol><symbol fill="none" viewBox="0 0 20 20" id="svg-social-vk" xmlns="http://www.w3.org/2000/svg"><g clip-path="url(#da)"><path fill="currentColor" d="m19.567 16.035-5.756-4.923 6.002-7.247a.814.814 0 0 0-1.254-1.038l-6.513 7.864a.8.8 0 0 0-.085.125v-7.47a.814.814 0 0 0-.814-.814h-1.033a.814.814 0 1 0 0 1.628h.22v10.119L1.457 2.847a.814.814 0 0 0-1.286.998l10.334 13.308a.813.813 0 0 0 1.456-.499v-5.051c.046.083.107.16.183.226l6.365 5.444a.81.81 0 0 0 1.148-.09.814.814 0 0 0-.09-1.148Z"/></g><defs><clipPath id="da"><path fill="#fff" d="M0 0h20v20H0z"/></clipPath></defs></symbol><symbol fill="none" viewBox="0 0 20 20" id="svg-social-whatsapp" xmlns="http://www.w3.org/2000/svg"><g fill="currentColor" clip-path="url(#ea)"><path d="M17.16 2.84A9.635 9.635 0 0 0 10.3 0C9.018 0 7.77.248 6.588.738A9.65 9.65 0 0 0 3.443 2.84a9.635 9.635 0 0 0-2.84 6.858c0 1.545.372 3.08 1.079 4.448l-1.63 4.657a.891.891 0 0 0 .212.932.891.891 0 0 0 .932.213l4.657-1.63a9.727 9.727 0 0 0 4.448 1.079 9.636 9.636 0 0 0 6.858-2.841A9.635 9.635 0 0 0 20 9.699a9.635 9.635 0 0 0-2.84-6.858Zm-.83 12.887a8.47 8.47 0 0 1-6.029 2.498 8.547 8.547 0 0 1-4.002-.997.903.903 0 0 0-.72-.056l-4.232 1.481 1.481-4.231a.904.904 0 0 0-.056-.721 8.547 8.547 0 0 1-.997-4.002A8.47 8.47 0 0 1 4.272 3.67 8.47 8.47 0 0 1 10.3 1.173h.001A8.47 8.47 0 0 1 16.33 3.67 8.47 8.47 0 0 1 18.827 9.7a8.47 8.47 0 0 1-2.497 6.028Z"/><path d="M13.906 10.565a1.146 1.146 0 0 0-1.619 0l-.488.488a7.104 7.104 0 0 1-2.852-2.852l.488-.488a1.145 1.145 0 0 0 0-1.619L8.12 4.78a1.146 1.146 0 0 0-1.619 0L5.45 5.831c-.602.603-.632 1.639-.084 2.917.475 1.11 1.346 2.33 2.451 3.436 1.105 1.105 2.326 1.976 3.436 2.451.607.26 1.16.39 1.637.39.528 0 .963-.158 1.28-.474l1.052-1.052c.216-.216.335-.504.335-.81 0-.305-.12-.592-.335-.809l-1.315-1.315Zm-.567 3.156c-.172.172-.7.232-1.625-.164-.976-.418-2.066-1.2-3.068-2.203-1.002-1.002-1.785-2.091-2.203-3.068-.396-.924-.336-1.453-.164-1.625L7.31 5.629l1.274 1.275-.61.61a.895.895 0 0 0-.166 1.043 8.275 8.275 0 0 0 3.634 3.635.895.895 0 0 0 1.043-.166l.61-.611 1.275 1.275-1.032 1.031Z"/></g><defs><clipPath id="ea"><path fill="#fff" d="M0 0h20v20H0z"/></clipPath></defs></symbol></svg>