<?xml version="1.0" standalone="no"?>
<!DOCTYPE svg PUBLIC "-//W3C//DTD SVG 20010904//EN"
 "http://www.w3.org/TR/2001/REC-SVG-20010904/DTD/svg10.dtd">
<svg version="1.0" xmlns="http://www.w3.org/2000/svg"
 width="700.000000pt" height="700.000000pt" viewBox="0 0 700.000000 700.000000"
 preserveAspectRatio="xMidYMid meet">
<metadata>
Created by potrace 1.14, written by Peter Selinger 2001-2017
</metadata>
<g transform="translate(0.000000,700.000000) scale(0.100000,-0.100000)"
fill="#000000" stroke="none">
<path d="M3189 6996 c-2 -2 -44 -7 -94 -10 -96 -8 -121 -10 -230 -27 -87 -14
-102 -17 -123 -23 -9 -3 -28 -7 -42 -9 -53 -10 -250 -72 -355 -112 -331 -129
-656 -304 -959 -519 -97 -68 -261 -212 -379 -331 -453 -455 -761 -996 -904
-1584 -26 -110 -27 -115 -43 -201 -6 -30 -12 -66 -15 -80 -3 -14 -8 -52 -11
-85 -4 -33 -8 -62 -10 -65 -17 -32 -26 -605 -11 -765 27 -285 61 -474 128
-705 165 -577 511 -1109 1025 -1580 502 -460 1200 -785 1859 -866 22 -3 49 -7
60 -9 92 -19 544 -27 715 -13 286 25 569 84 844 178 435 148 825 376 1168 683
74 66 234 225 278 277 12 14 31 36 44 50 106 121 295 388 390 554 240 416 390
862 452 1341 25 192 24 705 -1 830 -3 11 -7 38 -10 60 -81 589 -332 1170 -713
1655 -187 237 -433 480 -702 694 -22 17 -211 149 -235 163 -165 100 -277 158
-430 223 -171 73 -507 179 -645 204 -19 3 -46 8 -60 11 -37 8 -286 42 -360 50
-67 7 -625 16 -631 11z m567 -141 c54 -4 105 -8 114 -10 8 -1 41 -6 74 -10 67
-8 78 -10 206 -35 511 -102 1022 -345 1400 -666 426 -362 737 -738 948 -1143
144 -278 262 -642 298 -921 2 -19 6 -42 9 -50 2 -8 7 -49 10 -90 4 -41 9 -84
12 -95 9 -38 11 -540 2 -615 -4 -41 -11 -100 -14 -130 -6 -51 -18 -133 -30
-205 -76 -436 -272 -914 -524 -1280 -581 -847 -1489 -1371 -2496 -1441 -203
-14 -527 -4 -705 22 -19 3 -49 7 -67 9 -246 31 -558 116 -818 222 -380 156
-714 381 -1021 687 -374 374 -624 754 -794 1203 -49 131 -121 384 -145 513
-13 66 -25 139 -30 180 -3 25 -8 56 -10 70 -3 14 -7 54 -10 90 -3 36 -8 92
-11 125 -8 71 -8 425 0 493 3 26 8 76 11 112 4 36 8 72 10 80 2 8 7 40 10 70
18 165 126 555 196 707 10 24 19 46 19 49 0 13 130 273 178 355 234 405 567
784 928 1057 404 306 968 541 1479 616 17 2 50 8 75 11 54 9 81 11 230 21 63
3 116 8 118 9 5 4 253 -3 348 -10z"/>
<path d="M3298 6515 c-2 -1 -32 -5 -68 -9 -796 -74 -1477 -447 -2061 -1126
-390 -454 -604 -976 -646 -1574 -13 -192 -8 -508 12 -666 11 -85 18 -136 21
-155 3 -11 11 -56 20 -100 90 -477 331 -973 655 -1350 188 -218 481 -459 744
-612 246 -143 626 -294 850 -338 11 -2 52 -10 90 -19 180 -38 394 -60 600 -60
110 0 323 11 360 19 11 2 39 7 63 9 221 27 509 107 744 207 357 152 655 352
918 618 138 139 161 165 276 318 219 288 398 603 378 665 -9 28 -106 88 -281
174 -84 41 -155 74 -158 74 -2 0 -28 11 -57 24 -102 47 -424 174 -492 195 -77
24 -144 27 -168 8 -9 -6 -51 -64 -94 -127 -122 -181 -214 -292 -359 -430 -208
-199 -454 -334 -728 -399 -74 -18 -111 -25 -202 -37 -16 -3 -111 -6 -210 -8
-328 -6 -511 35 -760 169 -182 98 -301 188 -455 344 -225 227 -372 487 -444
781 -37 152 -37 158 -41 350 -6 234 16 379 87 579 130 370 394 702 728 916
124 80 344 173 471 199 26 5 59 12 99 21 91 20 401 29 490 14 30 -5 73 -11 95
-14 81 -12 233 -55 335 -94 226 -89 405 -206 591 -391 138 -136 232 -256 286
-365 43 -85 96 -153 127 -161 37 -9 251 53 371 106 11 5 83 37 160 70 246 108
522 257 588 318 23 22 26 32 21 57 -26 122 -346 597 -579 858 -298 336 -805
642 -1330 805 -119 37 -221 65 -285 76 -14 3 -61 11 -105 20 -44 8 -107 18
-140 22 -33 3 -69 8 -80 11 -22 5 -432 13 -437 8z m667 -146 c164 -33 412 -99
483 -128 66 -26 67 -28 64 -61 -8 -95 -144 -390 -180 -390 -40 0 -153 89 -322
254 -206 200 -291 305 -269 332 21 26 69 24 224 -7z m-713 -4 c-14 -83 -505
-575 -574 -575 -9 0 -27 10 -38 23 -47 49 -136 268 -146 359 -5 44 -4 48 24
62 47 24 401 110 542 131 25 4 65 10 90 14 79 12 105 9 102 -14z m385 -92
c173 -143 560 -556 586 -625 9 -26 -31 -58 -139 -112 -245 -121 -520 -216
-607 -211 -117 6 -571 193 -669 276 l-33 27 17 34 c53 112 572 639 681 691 37
19 54 11 164 -80z m-1303 -175 c48 -64 107 -205 145 -351 9 -35 8 -39 -13 -47
-45 -17 -124 -22 -381 -25 -313 -4 -435 10 -435 49 0 54 547 405 632 406 19 0
34 -10 52 -32z m2529 -32 c69 -36 151 -81 181 -100 31 -20 59 -36 62 -36 15 0
187 -126 214 -156 40 -46 29 -67 -42 -85 -90 -23 -635 -18 -733 7 -26 6 -27 9
-20 52 12 80 110 310 157 370 19 23 55 12 181 -52z m-2578 -520 c158 -11 199
-28 197 -85 -2 -84 -178 -488 -260 -596 -49 -65 -117 -116 -222 -167 -193 -93
-465 -181 -497 -160 -39 27 -58 211 -57 577 1 290 13 391 48 405 32 12 101 19
251 26 72 4 131 7 132 8 4 4 326 -3 408 -8z m3015 4 c108 -3 175 -22 197 -56
14 -22 17 -54 17 -202 0 -236 -14 -592 -29 -720 l-7 -53 -31 6 c-65 14 -336
119 -453 175 -181 87 -246 162 -338 390 -15 36 -31 74 -36 85 -36 81 -114 350
-107 369 4 10 510 14 787 6z m-2414 -126 c88 -36 183 -75 212 -86 53 -21 54
-22 29 -35 -43 -22 -448 -184 -533 -213 -45 -15 -86 -25 -92 -21 -14 8 19 103
78 226 69 144 102 195 126 195 12 0 93 -30 180 -66z m1432 40 c23 -16 100
-160 146 -275 30 -72 44 -139 29 -139 -23 0 -137 45 -335 133 -117 52 -221 97
-230 100 -53 19 14 71 182 142 141 61 170 66 208 39z m1429 -126 c41 -42 209
-287 278 -403 92 -156 99 -225 27 -285 -66 -55 -245 -130 -309 -130 -31 0 -49
42 -62 141 -12 87 -10 678 2 697 13 20 31 14 64 -20z m-4462 -27 c22 -72 42
-623 26 -741 -5 -40 -9 -45 -34 -48 -61 -7 -265 72 -355 138 -39 28 -43 34
-38 64 12 76 93 236 201 396 132 195 183 244 200 191z m-440 -755 c131 -35
349 -134 400 -182 l26 -24 -23 -34 c-30 -44 -97 -117 -223 -246 -157 -159
-438 -435 -454 -444 -10 -7 -12 -2 -7 20 3 16 8 47 11 69 3 22 8 51 10 65 5
29 10 57 25 155 31 204 93 461 135 560 13 31 42 76 49 75 1 0 24 -6 51 -14z
m1172 -12 c6 -17 -28 -105 -94 -238 -68 -137 -138 -319 -173 -451 -17 -65 -32
-120 -33 -122 -5 -5 -152 325 -179 402 -68 194 -30 249 252 366 139 57 216 72
227 43z m3161 -74 c63 -33 132 -94 132 -116 0 -23 -42 -54 -75 -54 -48 0 -133
47 -166 93 -32 45 -37 78 -13 101 20 21 49 15 122 -24z m-3728 -404 c27 -56
87 -199 134 -320 l87 -219 -67 -186 c-123 -342 -203 -511 -243 -511 -43 0
-172 109 -401 339 -177 178 -270 288 -270 321 0 41 95 156 290 350 209 210
375 345 408 333 8 -4 36 -52 62 -107z m-605 -965 c88 -88 224 -224 302 -303
l143 -143 -143 -59 c-277 -115 -313 -123 -361 -85 -49 39 -93 186 -141 479
-10 59 -18 267 -11 285 5 15 8 15 28 1 12 -9 94 -87 183 -175z m936 -172 c98
-222 147 -347 155 -400 7 -40 7 -40 -22 -33 -80 19 -361 147 -394 179 -12 13
-11 24 9 87 43 132 153 382 162 366 5 -8 45 -98 90 -199z m3525 -234 c13 -8
24 -25 24 -37 0 -49 -169 -168 -239 -168 -23 0 -30 5 -33 23 -5 30 20 115 41
138 45 48 163 73 207 44z m-3987 -267 c6 -156 5 -649 -1 -710 -10 -93 -20 -98
-80 -35 -81 84 -206 264 -298 427 -47 83 -82 169 -75 189 11 35 110 91 305
174 122 51 133 55 140 51 3 -1 7 -45 9 -96z m4491 47 c52 -20 113 -45 135 -55
22 -10 56 -25 76 -33 61 -25 119 -66 119 -85 0 -47 -164 -314 -330 -537 -116
-156 -127 -161 -137 -64 -12 111 -3 580 16 808 1 7 7 11 14 8 6 -2 55 -21 107
-42z m-4194 -9 c114 -34 275 -97 379 -146 108 -52 201 -139 257 -240 125 -225
218 -439 218 -500 0 -77 -26 -87 -265 -94 -77 -3 -205 -8 -285 -13 -258 -13
-383 -5 -422 27 l-23 18 0 379 c1 208 4 421 7 473 4 52 7 101 8 108 0 18 37
15 126 -12z m3923 -15 c6 -10 8 -29 5 -42 -29 -135 -36 -253 -39 -634 -2 -165
-3 -303 -4 -307 -1 -4 -34 -5 -73 -3 -40 2 -143 7 -228 10 -230 9 -479 23
-540 30 -147 17 -138 14 -133 47 15 94 162 463 222 556 62 95 141 151 341 240
248 111 424 151 449 103z m-2917 -535 c175 -64 481 -185 490 -194 28 -28 -183
-141 -297 -159 -101 -16 -187 7 -212 57 -28 55 -114 310 -108 320 10 16 28 12
127 -24z m1892 18 c12 -31 -96 -252 -153 -311 -98 -103 -199 -87 -477 73 l-32
18 177 66 c97 37 219 85 271 107 160 68 202 77 214 47z m-900 -299 c152 -40
448 -175 521 -238 45 -39 43 -49 -16 -128 -121 -163 -492 -528 -587 -578 -32
-17 -52 -8 -140 62 -71 56 -632 603 -632 616 0 10 481 223 570 252 99 33 194
37 284 14z m1556 -310 c143 -13 200 -23 200 -36 0 -25 -307 -233 -465 -315
-163 -85 -236 -87 -289 -7 -21 32 -61 130 -64 156 0 4 -6 32 -12 63 -7 31 -9
67 -6 80 9 33 59 54 145 61 36 3 67 7 69 8 5 5 354 -3 422 -10z m-2861 -19
c81 -8 152 -24 167 -37 8 -6 9 -21 4 -42 -7 -34 -77 -204 -91 -222 -4 -5 -24
-43 -44 -83 l-37 -72 -32 18 c-17 11 -75 43 -130 71 -139 74 -162 88 -241 140
-38 25 -74 48 -80 50 -9 4 -235 181 -235 184 0 6 666 -1 719 -7z m724 -391
c172 -172 222 -244 193 -274 -51 -51 -472 29 -652 123 -95 49 -99 61 -63 169
20 60 117 267 147 315 17 25 17 25 375 -333z m1351 254 c54 -91 96 -186 108
-242 20 -97 -26 -155 -162 -203 -69 -24 -288 -80 -355 -91 -16 -3 -48 -8 -70
-12 -54 -10 -112 -6 -130 9 -13 11 -13 16 0 48 24 56 74 112 318 357 259 259
227 244 291 134z"/>
</g>
</svg>
